        <svg xmlns="http://www.w3.org/2000/svg" xmlns:xlink="http://www.w3.org/1999/xlink">
            <symbol viewBox="0 0 25 25" id="ok">
                <path
                    d="m4.721 12.881c-.613 1.205.083 1.781 1.671 2.765 1.35.834 3.215 1.139 4.413 1.261-.491.472 1.759-1.692-4.721 4.541-1.374 1.317.838 3.43 2.211 2.141l3.717-3.585c1.423 1.369 2.787 2.681 3.717 3.59 1.374 1.294 3.585-.801 2.226-2.141-.102-.097-5.037-4.831-4.736-4.541 1.213-.122 3.05-.445 4.384-1.261l-.001-.001c1.588-.989 2.284-1.564 1.68-2.769-.365-.684-1.349-1.256-2.659-.267 0 0-1.769 1.355-4.622 1.355-2.854 0-4.622-1.355-4.622-1.355-1.309-.994-2.297-.417-2.658.267z"
                ></path>
                <path
                    d="m11.999 12.142c3.478 0 6.318-2.718 6.318-6.064 0-3.36-2.84-6.078-6.318-6.078-3.479 0-6.319 2.718-6.319 6.078 0 3.346 2.84 6.064 6.319 6.064zm0-9.063c1.709 0 3.103 1.341 3.103 2.999 0 1.644-1.394 2.985-3.103 2.985s-3.103-1.341-3.103-2.985c-.001-1.659 1.393-2.999 3.103-2.999z"
                ></path>
            </symbol>
            <symbol viewBox="0 0 320 320" id="phone">
                <path
                id="XMLID_8_"
                d="M275.445,135.123c0.387-45.398-38.279-87.016-86.192-92.771c-0.953-0.113-1.991-0.285-3.09-0.467 c-2.372-0.393-4.825-0.797-7.3-0.797c-9.82,0-12.445,6.898-13.136,11.012c-0.672,4-0.031,7.359,1.902,9.988 c3.252,4.422,8.974,5.207,13.57,5.836c1.347,0.186,2.618,0.359,3.682,0.598c43.048,9.619,57.543,24.742,64.627,67.424 c0.173,1.043,0.251,2.328,0.334,3.691c0.309,5.102,0.953,15.717,12.365,15.717h0.001c0.95,0,1.971-0.082,3.034-0.244 c10.627-1.615,10.294-11.318,10.134-15.98c-0.045-1.313-0.088-2.555,0.023-3.381C275.429,135.541,275.444,135.332,275.445,135.123z "
            ></path>
            <path
                id="XMLID_9_"
                d="M176.077,25.688c1.275,0.092,2.482,0.18,3.487,0.334c70.689,10.871,103.198,44.363,112.207,115.605 c0.153,1.211,0.177,2.688,0.202,4.252c0.09,5.566,0.275,17.145,12.71,17.385l0.386,0.004c3.9,0,7.002-1.176,9.221-3.498 c3.871-4.049,3.601-10.064,3.383-14.898c-0.053-1.186-0.104-2.303-0.091-3.281C318.481,68.729,255.411,2.658,182.614,0.201 c-0.302-0.01-0.59,0.006-0.881,0.047c-0.143,0.021-0.408,0.047-0.862,0.047c-0.726,0-1.619-0.063-2.566-0.127 C177.16,0.09,175.862,0,174.546,0c-11.593,0-13.797,8.24-14.079,13.152C159.817,24.504,170.799,25.303,176.077,25.688z"
            ></path>
            <path
                id="XMLID_10_"
                d="M288.36,233.703c-1.503-1.148-3.057-2.336-4.512-3.508c-7.718-6.211-15.929-11.936-23.87-17.473 c-1.648-1.148-3.296-2.297-4.938-3.449c-10.172-7.145-19.317-10.617-27.957-10.617c-11.637,0-21.783,6.43-30.157,19.109 c-3.71,5.621-8.211,8.354-13.758,8.354c-3.28,0-7.007-0.936-11.076-2.783c-32.833-14.889-56.278-37.717-69.685-67.85 c-6.481-14.564-4.38-24.084,7.026-31.832c6.477-4.396,18.533-12.58,17.679-28.252c-0.967-17.797-40.235-71.346-56.78-77.428 c-7.005-2.576-14.365-2.6-21.915-0.06c-19.02,6.394-32.669,17.623-39.475,32.471C2.365,64.732,2.662,81.578,9.801,99.102 c20.638,50.666,49.654,94.84,86.245,131.293c35.816,35.684,79.837,64.914,130.839,86.875c4.597,1.978,9.419,3.057,12.94,3.844 c1.2,0.27,2.236,0.5,2.991,0.707c0.415,0.113,0.843,0.174,1.272,0.178l0.403,0.002c0.001,0,0,0,0.002,0 c23.988,0,52.791-21.92,61.637-46.91C313.88,253.209,299.73,242.393,288.36,233.703z"
            ></path>
            <path
                id="XMLID_11_"
                d="M186.687,83.564c-4.107,0.104-12.654,0.316-15.653,9.021c-1.403,4.068-1.235,7.6,0.5,10.498 c2.546,4.252,7.424,5.555,11.861,6.27c16.091,2.582,24.355,11.48,26.008,28c0.768,7.703,5.955,13.082,12.615,13.082h0.001 c0.492,0,0.995-0.029,1.496-0.09c8.01-0.953,11.893-6.838,11.542-17.49c0.128-11.117-5.69-23.738-15.585-33.791 C209.543,88.98,197.574,83.301,186.687,83.564z"
            ></path>
            </symbol>
            <symbol viewBox="0 0 510 510" id="telegram">
                <path
                    d="M501.974,41.949c-8.237-7.547-19.944-10.062-30.555-6.565L21.231,183.785c-12.269,4.044-20.589,14.996-21.196,27.899 c-0.606,12.904,6.649,24.589,18.483,29.768l90.405,39.554l266.17-147.723c6.501-3.608,14.66-1.922,19.2,3.961 c4.541,5.885,4.1,14.204-1.037,19.576L227.319,330.325L193.287,453.28l81.681-61.162l96.589,79.039 c5.626,4.606,12.502,7.008,19.513,7.008c3.338-0.001,6.708-0.545,9.986-1.657c10.166-3.447,17.702-11.744,20.159-22.193 l89.965-382.503C513.737,60.939,510.211,49.496,501.974,41.949z"
                ></path>
                <path
                    d="M132.476,302.325l31.261,144.992l35.612-128.661c0.662-2.394,1.907-4.587,3.623-6.381l100.029-104.59L132.476,302.325z"
                ></path>
            </symbol>
            <symbol viewBox="0 -121 512 512" id="vk" class="vk">
                <path
                    d="m457.742188 95.480469c52.980468-71.726563 41.230468-73.070313 54.257812-95.480469h-101.527344s-7.214844 25.050781-9.417968 29.535156c-19.5 39.660156-63.238282 99.167969-89.691407 105.25-26.046875 5.992188-22.589843-55.5625-20.984375-82.226562 1.511719-24.714844 1.253906-33.363282.527344-37.632813-1.0625-6.238281-6.296875-10.789062-12.578125-11.582031-12.949219-1.640625-36.445313-3.960938-62.757813-2.742188l-23.539062.78125c9.28125 20.761719 15.550781 14.398438 18.96875 38.417969 3.859375 28.121094 2.339844 96.546875-25.355469 96.546875-44.398437 0-94.234375-133.34375-95.820312-136.347656h-89.824219l8.21875 20.566406c66.238281 165.820313 149.082031 242.621094 262.429688 249.007813l14.75.425781 1.054687-14.324219c1.59375-22.121093 12.691406-53.964843 32.375-53.964843 29.082031 0 37.484375 8.46875 56.664063 32.167968 18.441406 22.722656 31.148437 36.121094 60.90625 36.121094h75.601562l-10.78125-21.679688c-16.835938-33.800781-50.605469-62.777343-63.792969-79.585937-4.777343-6.328125-9.480469-16.332031-4.613281-28.433594 3.980469-10.539062 15.832031-32.519531 24.929688-44.820312zm0 0"
                ></path>
            </symbol>
        </svg>